<?xml version="1.0" encoding="UTF-8" standalone="no"?>
<!DOCTYPE svg PUBLIC "-//W3C//DTD SVG 1.1//EN" "http://www.w3.org/Graphics/SVG/1.1/DTD/svg11.dtd">
<svg width="100%" height="100%" viewBox="0 0 1109 377" version="1.1" xmlns="http://www.w3.org/2000/svg" xmlns:xlink="http://www.w3.org/1999/xlink" xml:space="preserve" xmlns:serif="http://www.serif.com/" style="fill-rule:evenodd;clip-rule:evenodd;stroke-linejoin:round;stroke-miterlimit:2;">
    <g transform="matrix(1,0,0,1,-65.65651,-151.522886)">
        <g transform="matrix(1,0,0,1,4.310924,24.225668)">
            <g transform="matrix(1.360846,0,0,1.360846,-118.286031,-25.117487)">
                <path id="head" d="M153.013,279.996C139.821,262.443 132,240.628 132,217C132,159.049 179.049,112 237,112C294.951,112 342,159.049 342,217C342,220.345 341.843,223.653 341.537,226.918C341.474,227.578 341.591,228.243 341.875,228.843C344.689,234.774 360.347,267.768 366.509,280.751C367.049,281.889 366.968,283.225 366.295,284.289C365.621,285.354 364.449,286 363.189,286C357.37,286 348.592,286 343.674,286C341.645,286 340,287.645 340,289.674C340,300.326 340,331.368 340,345.652C340,349.71 336.71,353 332.652,353C319.506,353 292.524,353 283.793,353C282.142,353 280.694,354.101 280.253,355.691C278.398,362.367 273.602,379.633 271.747,386.309C271.306,387.899 269.858,389 268.207,389C253.845,389 188.26,389 169.83,389C168.682,389 167.601,388.464 166.906,387.55C166.211,386.637 165.983,385.451 166.289,384.345C169.943,371.149 180.254,333.916 182.545,325.642C182.834,324.601 182.649,323.485 182.04,322.592C176.962,315.144 153.444,280.652 153.006,280.009C153.005,280.007 153.005,280.004 153.006,280.001C153.007,279.999 153.01,279.997 153.013,279.997C153.013,279.996 153.013,279.996 153.013,279.996Z" style="fill:rgb(29,78,216);"/>
                <path id="cog" d="M192.22,237.63C191.965,236.933 191.377,236.411 190.654,236.241C187.736,235.553 180.115,233.76 176.7,232.956C175.704,232.722 175,231.833 175,230.81L175,208.325C175,207.291 175.718,206.397 176.726,206.173C180.121,205.418 187.587,203.759 190.502,203.111C191.242,202.947 191.845,202.414 192.099,201.701C192.662,200.141 193.297,198.615 193.999,197.127C194.321,196.451 194.278,195.657 193.883,195.02C192.304,192.466 188.204,185.844 186.363,182.869C185.824,182 185.955,180.874 186.678,180.15C190.02,176.808 199.218,167.611 202.578,164.25C203.309,163.52 204.449,163.395 205.32,163.949C208.295,165.842 214.896,170.043 217.44,171.662C218.075,172.066 218.871,172.118 219.552,171.801C220.65,171.294 221.768,170.825 222.904,170.394C223.592,170.135 224.105,169.551 224.273,168.836C224.964,165.902 226.788,158.151 227.6,154.7C227.834,153.704 228.723,153 229.746,153C234.472,153 247.479,153 252.232,153C253.265,153 254.159,153.718 254.384,154.726C255.13,158.087 256.762,165.431 257.407,168.331C257.573,169.078 258.114,169.685 258.837,169.935C260.459,170.503 262.045,171.148 263.59,171.867C264.261,172.181 265.046,172.137 265.678,171.75C268.21,170.197 274.781,166.165 277.744,164.346C278.616,163.811 279.741,163.946 280.462,164.672C283.791,168.027 292.952,177.26 296.3,180.634C297.027,181.367 297.148,182.507 296.59,183.377C294.744,186.254 290.727,192.512 289.136,194.991C288.724,195.633 288.673,196.441 289.001,197.13C289.779,198.774 290.472,200.466 291.078,202.199C291.325,202.913 291.92,203.451 292.656,203.624C295.392,204.269 302.131,205.854 305.3,206.6C306.296,206.834 307,207.723 307,208.746C307,213.472 307,226.479 307,231.232C307,232.265 306.282,233.159 305.274,233.384C302.038,234.103 295.137,235.636 292.365,236.252C291.631,236.415 291.031,236.941 290.773,237.647C290.274,239.003 289.72,240.331 289.114,241.631C288.797,242.306 288.843,243.094 289.235,243.728C290.793,246.247 294.817,252.746 296.637,255.687C297.176,256.557 297.045,257.683 296.322,258.406C292.98,261.748 283.782,270.945 280.422,274.306C279.691,275.037 278.551,275.162 277.68,274.607C274.781,272.762 268.453,268.736 265.962,267.15C265.322,266.743 264.517,266.694 263.832,267.019C262.243,267.769 260.61,268.441 258.938,269.03C258.227,269.278 257.691,269.872 257.519,270.606C256.852,273.434 255.172,280.574 254.4,283.857C254.166,284.853 253.277,285.556 252.254,285.556C247.528,285.556 234.521,285.556 229.768,285.556C228.735,285.556 227.841,284.839 227.616,283.83C226.872,280.481 225.249,273.178 224.613,270.315C224.45,269.584 223.927,268.985 223.223,268.726C221.791,268.193 220.387,267.6 219.017,266.948C218.342,266.626 217.55,266.667 216.913,267.058C214.435,268.578 208.142,272.439 205.256,274.21C204.384,274.745 203.259,274.61 202.538,273.884C199.209,270.529 190.048,261.296 186.7,257.923C185.973,257.189 185.852,256.049 186.41,255.179C188.235,252.336 192.175,246.197 193.744,243.753C194.153,243.115 194.206,242.311 193.884,241.625C193.276,240.322 192.72,238.989 192.22,237.63ZM241,205C233.273,205 227,211.273 227,219C227,226.727 233.273,233 241,233C248.727,233 255,226.727 255,219C255,211.273 248.727,205 241,205Z" style="fill:white;"/>
            </g>
            <g transform="matrix(1.026569,0,0,1.026569,-45.917999,33.750867)">
                <path d="M576.347,391.612C561.901,391.612 548.52,389.019 536.203,383.833C523.887,378.647 513.145,371.424 503.977,362.163C494.809,352.903 487.678,342.207 482.585,330.076C477.492,317.945 474.945,304.934 474.945,291.043C474.945,277.153 477.399,264.095 482.307,251.872C487.215,239.648 494.161,228.906 503.143,219.645C512.126,210.385 522.822,203.115 535.231,197.837C547.64,192.558 561.345,189.919 576.347,189.919C592.275,189.919 605.934,192.419 617.325,197.42C627.593,201.928 636.769,208.618 644.855,217.491C645.554,218.266 645.912,219.289 645.848,220.331C645.785,221.372 645.305,222.344 644.518,223.029C639.164,227.692 627.886,237.489 622.69,242.002C621.175,243.318 618.908,243.267 617.452,241.885C606.235,231.317 592.531,226.035 576.347,226.035C563.938,226.035 553.15,228.998 543.982,234.925C534.814,240.852 527.73,248.723 522.729,258.539C517.729,268.355 515.228,279.19 515.228,291.043C515.228,302.897 517.729,313.685 522.729,323.408C527.73,333.132 534.86,340.911 544.121,346.745C553.381,352.579 564.401,355.496 577.181,355.496C586.626,355.496 594.961,353.922 602.184,350.773C608.383,348.071 614.036,344.209 619.144,339.188C620.578,337.762 622.866,337.674 624.404,338.986C629.761,343.539 641.44,353.501 646.962,358.21C647.765,358.895 648.256,359.877 648.322,360.93C648.388,361.984 648.025,363.019 647.314,363.799C640.25,371.343 631.276,377.7 620.381,382.86C608.064,388.695 593.386,391.612 576.347,391.612Z" style="fill-rule:nonzero;"/>
                <path d="M726.366,391.612C711.55,391.612 698.307,388.185 686.639,381.332C674.971,374.48 665.849,365.358 659.274,353.968C652.699,342.578 649.412,329.937 649.412,316.046C649.412,302.156 652.699,289.469 659.274,277.986C665.849,266.503 674.971,257.335 686.639,250.482C698.307,243.63 711.55,240.203 726.366,240.203C741.368,240.203 754.657,243.63 766.232,250.482C777.808,257.335 786.883,266.503 793.458,277.986C800.033,289.469 803.321,302.156 803.321,316.046C803.321,329.937 800.033,342.578 793.458,353.968C786.883,365.358 777.808,374.48 766.232,381.332C754.657,388.185 741.368,391.612 726.366,391.612ZM726.366,357.441C734.33,357.441 741.276,355.542 747.202,351.745C753.129,347.949 757.713,342.902 760.954,336.605C764.195,330.307 765.816,323.455 765.816,316.046C765.816,308.453 764.195,301.507 760.954,295.21C757.713,288.913 753.129,283.866 747.202,280.07C741.276,276.273 734.33,274.374 726.366,274.374C718.402,274.374 711.457,276.273 705.53,280.07C699.604,283.866 695.02,288.913 691.779,295.21C688.537,301.507 686.917,308.453 686.917,316.046C686.917,323.455 688.537,330.307 691.779,336.605C695.02,342.902 699.604,347.949 705.53,351.745C711.457,355.542 718.402,357.441 726.366,357.441Z" style="fill-rule:nonzero;"/>
                <path d="M888.887,447.174C874.256,447.174 861.245,445.183 849.854,441.201C839.45,437.564 830.166,431.338 822.002,422.524C820.678,421.08 820.635,418.876 821.902,417.383C826.139,412.373 835.503,401.337 840.218,395.78C840.927,394.945 841.956,394.446 843.051,394.408C844.147,394.369 845.208,394.794 845.974,395.577C851.918,401.663 858.076,405.894 864.439,408.28C871.848,411.058 880.09,412.448 889.165,412.448C895.832,412.448 902.037,410.781 907.778,407.447C913.52,404.113 918.104,399.437 921.53,393.417C924.956,387.398 926.67,380.592 926.67,372.998L926.67,372.998C926.669,372.151 926.13,371.399 925.329,371.127C924.528,370.855 923.642,371.124 923.127,371.795C919.748,376.127 915.6,379.766 910.695,382.722C903.935,386.796 894.721,388.833 883.053,388.833C869.903,388.833 858.003,385.5 847.354,378.832C836.704,372.165 828.324,363.228 822.212,352.023C816.1,340.818 813.044,328.27 813.044,314.379C813.044,300.489 816.1,287.895 822.212,276.597C828.324,265.299 836.704,256.363 847.354,249.788C858.003,243.213 869.903,239.926 883.053,239.926C895.092,239.926 904.491,242.055 911.251,246.315C914.716,248.499 917.804,251.047 920.515,253.96C921.59,255.117 923.264,255.498 924.735,254.92C926.205,254.342 927.171,252.923 927.171,251.344C927.225,249.942 927.225,248.599 927.225,247.434C927.225,245.282 928.97,243.537 931.122,243.537C938.22,243.537 953.18,243.537 960.278,243.537C962.43,243.537 964.174,245.282 964.174,247.434C964.174,269.245 964.174,375.221 964.174,375.221C964.174,390.037 960.98,402.817 954.59,413.559C948.2,424.301 939.356,432.589 928.059,438.423C916.761,444.257 903.704,447.174 888.887,447.174ZM889.165,354.662C901.574,354.662 911.205,350.773 918.057,342.994C924.91,335.215 928.337,325.677 928.337,314.379C928.337,303.082 924.91,293.544 918.057,285.765C911.205,277.986 901.574,274.097 889.165,274.097C876.941,274.097 867.449,277.986 860.689,285.765C853.929,293.544 850.549,303.082 850.549,314.379C850.549,321.603 852.077,328.27 855.133,334.382C858.189,340.494 862.587,345.402 868.329,349.106C874.07,352.81 881.016,354.662 889.165,354.662Z" style="fill-rule:nonzero;"/>
                <path d="M990.296,388C988.144,388 986.399,386.255 986.399,384.104C986.399,363.559 986.399,267.979 986.399,247.434C986.399,245.282 988.144,243.537 990.296,243.537C997.394,243.537 1012.354,243.537 1019.452,243.537C1021.604,243.537 1023.349,245.282 1023.349,247.434C1023.349,248.677 1023.349,250.129 1023.349,251.653C1023.349,253.26 1024.335,254.701 1025.833,255.284C1027.33,255.866 1029.031,255.47 1030.117,254.286C1038.47,244.892 1050.944,240.203 1067.521,240.203C1077.893,240.203 1087.246,242.611 1095.58,247.427C1103.914,252.242 1110.489,259.095 1115.305,267.985C1120.12,276.875 1122.528,287.432 1122.528,299.655L1122.528,384.104C1122.528,385.137 1122.117,386.128 1121.387,386.859C1120.656,387.589 1119.665,388 1118.631,388C1111.431,388 1096.12,388 1088.92,388C1087.886,388 1086.895,387.589 1086.164,386.859C1085.434,386.128 1085.023,385.137 1085.023,384.104C1085.023,368.171 1085.023,308.823 1085.023,308.823C1085.023,296.229 1082.152,287.107 1076.411,281.459C1070.669,275.81 1063.169,272.985 1053.908,272.985C1045.944,272.985 1038.952,275.81 1032.933,281.459C1026.914,287.107 1023.904,296.229 1023.904,308.823L1023.904,384.104C1023.904,385.137 1023.494,386.128 1022.763,386.859C1022.032,387.589 1021.041,388 1020.008,388C1012.807,388 997.497,388 990.296,388Z" style="fill-rule:nonzero;"/>
                <path d="M1161.977,231.591C1155.68,231.591 1150.356,229.415 1146.003,225.063C1141.651,220.71 1139.475,215.478 1139.475,209.366C1139.475,203.439 1141.651,198.3 1146.003,193.947C1150.356,189.595 1155.68,187.419 1161.977,187.419C1168.46,187.419 1173.831,189.595 1178.091,193.947C1182.35,198.3 1184.48,203.439 1184.48,209.366C1184.48,215.663 1182.35,220.942 1178.091,225.201C1173.831,229.461 1168.46,231.591 1161.977,231.591ZM1147.26,388C1145.108,388 1143.364,386.255 1143.364,384.104C1143.364,363.559 1143.364,267.979 1143.364,247.434C1143.364,245.282 1145.108,243.537 1147.26,243.537C1154.461,243.537 1169.772,243.537 1176.972,243.537C1179.124,243.537 1180.869,245.282 1180.869,247.434C1180.869,267.979 1180.869,363.559 1180.869,384.104C1180.869,386.255 1179.124,388 1176.972,388C1169.772,388 1154.461,388 1147.26,388Z" style="fill-rule:nonzero;"/>
            </g>
        </g>
    </g>
</svg>
